<svg width="379" height="77" viewBox="0 0 379 77" fill="none" xmlns="http://www.w3.org/2000/svg">
<g clip-path="url(#clip0_42_519)">
<path d="M11.1153 0H0V11.088H11.1153V0Z" fill="#86C4C9"/>
<path d="M37.8228 12.0118C38.7491 12.4738 39.6754 13.0898 40.4473 13.7058H54.6501C47.3943 1.84784 32.5739 -0.616156 19.2974 0.307844V9.70184C25.1638 9.39384 32.8827 9.23984 37.8228 12.0118Z" fill="#3A3976"/>
<path d="M47.3943 29.722C47.3943 33.88 46.468 37.576 44.4611 40.81H56.5026C58.6639 35.574 58.9727 28.49 57.7376 22.792H46.3136C47.0855 24.794 47.3943 27.104 47.3943 29.722Z" fill="#3A3976"/>
<path d="M36.8965 50.9741V58.0581C41.6822 56.9801 46.3136 54.5161 49.5555 50.9741H36.8965Z" fill="#3A3976"/>
<path d="M23.1568 50.204H11.1153V19.25H0V59.444H23.1568V50.204Z" fill="#3A3976"/>
<path d="M65.4566 20.9439V15.3999H24.855V70.8399H35.1984V49.5879H62.0603V43.1199V42.5039H34.8896V20.9439H65.4566Z" fill="#86C4C9"/>
<path d="M88.6134 14.3223H102.816C106.213 14.3223 109.3 14.9383 112.079 16.3243C114.703 17.7103 116.865 19.5583 118.409 22.0223C119.952 24.4863 120.57 27.2583 120.57 30.4923C120.57 33.7263 119.798 36.4983 118.409 38.9623C116.865 41.4263 114.858 43.2743 112.079 44.6603C109.455 46.0463 106.367 46.6623 102.816 46.6623H88.6134V14.3223ZM102.507 41.7343C104.823 41.7343 106.984 41.2723 108.837 40.3483C110.69 39.4243 112.079 38.1923 113.005 36.4983C113.932 34.8043 114.395 32.8023 114.395 30.6463C114.395 28.4903 113.932 26.4883 113.005 24.7943C112.079 23.1003 110.69 21.8683 108.837 20.9443C106.984 20.0203 104.978 19.5583 102.507 19.5583H94.6342V41.7343H102.507Z" fill="#86C4C9"/>
<path d="M127.054 14.3223H133.074V46.8163H127.054V14.3223Z" fill="#86C4C9"/>
<path d="M147.895 19.4043V29.2603H163.642V34.3423H147.895V46.8163H141.874V14.3223H165.648V19.4043H147.895Z" fill="#86C4C9"/>
<path d="M177.381 19.4043V29.2603H193.128V34.3423H177.381V46.8163H171.36V14.3223H195.135V19.4043H177.381Z" fill="#3A3976"/>
<path d="M222.306 46.8163L215.667 37.2683C215.358 37.2683 214.895 37.2683 214.432 37.2683H207.022V46.6623H201.001V14.3223H214.432C217.211 14.3223 219.681 14.7843 221.842 15.7083C224.004 16.6323 225.547 18.0183 226.628 19.7123C227.709 21.4063 228.326 23.5623 228.326 25.8723C228.326 28.3363 227.709 30.4923 226.474 32.1863C225.239 33.8803 223.541 35.2663 221.379 36.1903L228.789 46.8163H222.306ZM220.144 21.0983C218.755 20.0203 216.748 19.4043 214.123 19.4043H207.022V32.3403H214.123C216.748 32.3403 218.755 31.7243 220.144 30.6463C221.534 29.5683 222.151 27.8743 222.151 25.8723C222.151 23.8703 221.534 22.1763 220.144 21.0983Z" fill="#3A3976"/>
<path d="M259.356 41.7343V46.8163H234.964V14.3223H258.739V19.4043H240.985V27.8743H256.732V32.8023H240.985V41.7343H259.356Z" fill="#3A3976"/>
<path d="M266.149 14.3223H272.17V46.8163H266.149V14.3223Z" fill="#3A3976"/>
<path d="M303.2 30.1841H308.912V43.1201C307.214 44.5061 305.361 45.4301 303.046 46.2001C300.884 46.9701 298.569 47.2781 296.099 47.2781C292.857 47.2781 289.769 46.5081 287.145 45.1221C284.52 43.7361 282.359 41.7341 280.815 39.1161C279.271 36.6521 278.499 33.7261 278.499 30.4921C278.499 27.2581 279.271 24.4861 280.815 21.8681C282.359 19.4041 284.366 17.4021 287.145 15.8621C289.769 14.4761 292.857 13.7061 296.253 13.7061C299.032 13.7061 301.502 14.1681 303.663 15.0921C305.824 16.0161 307.831 17.2481 309.221 19.0961L305.361 22.7921C302.891 20.3281 299.958 19.0961 296.407 19.0961C294.092 19.0961 292.085 19.5581 290.232 20.4821C288.38 21.4061 286.99 22.7921 286.064 24.4861C284.983 26.1801 284.52 28.1821 284.52 30.4921C284.52 32.6481 284.983 34.6501 286.064 36.3441C287.145 38.0381 288.534 39.4241 290.232 40.3481C292.085 41.2721 294.092 41.8881 296.253 41.8881C298.723 41.8881 301.039 41.2721 302.891 40.1941V30.1841H303.2Z" fill="#3A3976"/>
<path d="M345.809 14.3223V46.8163H339.633V32.9563H322.806V46.8163H316.785V14.3223H322.806V27.7203H339.633V14.3223H345.809Z" fill="#3A3976"/>
<path d="M361.092 19.4043H350.286V14.3223H377.919V19.4043H367.113V46.8163H361.092V19.4043Z" fill="#3A3976"/>
<path d="M89.0765 54.6699H90.9291V72.0719H89.0765V54.6699Z" fill="#86C4C9"/>
<path d="M107.602 60.2138C108.528 61.1378 108.991 62.5238 108.991 64.3718V71.9178H107.293V64.5258C107.293 63.1398 106.984 62.0618 106.213 61.4458C105.595 60.6758 104.514 60.3678 103.279 60.3678C101.89 60.3678 100.809 60.8298 99.883 61.5998C99.1111 62.3698 98.648 63.6018 98.648 65.1418V72.0718H96.9498V58.9818H98.648V61.4458C99.1111 60.6758 99.7286 60.0598 100.655 59.5978C101.581 59.1358 102.507 58.9818 103.588 58.9818C105.286 58.8278 106.521 59.2898 107.602 60.2138Z" fill="#86C4C9"/>
<path d="M121.496 71.1477C121.187 71.4557 120.724 71.6097 120.261 71.7637C119.798 71.9177 119.335 72.0717 118.717 72.0717C117.482 72.0717 116.556 71.7637 115.938 71.1477C115.321 70.5317 115.012 69.6077 115.012 68.3757V60.5217H112.697V58.9817H115.012V56.0557H116.71V58.9817H120.724V60.5217H116.71V68.3757C116.71 69.1457 116.865 69.7617 117.328 70.2237C117.791 70.6857 118.254 70.8397 119.026 70.8397C119.335 70.8397 119.798 70.8397 120.107 70.6857C120.415 70.5317 120.724 70.3777 121.033 70.2237L121.496 71.1477Z" fill="#86C4C9"/>
<path d="M136.471 66.0659H125.51C125.664 67.4519 126.127 68.5299 127.054 69.2999C127.98 70.0699 129.215 70.5319 130.604 70.5319C131.376 70.5319 132.148 70.3779 132.92 70.0699C133.538 69.7619 134.155 69.2999 134.618 68.8379L135.545 69.9159C134.927 70.6859 134.31 71.1479 133.383 71.4559C132.457 71.7639 131.531 72.0719 130.45 72.0719C129.061 72.0719 127.98 71.7639 126.899 71.1479C125.819 70.5319 125.047 69.7619 124.429 68.8379C123.812 67.7599 123.503 66.6819 123.503 65.4499C123.503 64.2179 123.812 62.9859 124.275 62.0619C124.892 60.9839 125.664 60.2139 126.591 59.7519C127.517 59.1359 128.598 58.9819 129.833 58.9819C131.068 58.9819 132.148 59.2899 133.075 59.7519C134.001 60.3679 134.773 61.1379 135.39 62.0619C136.008 63.1399 136.162 64.2179 136.162 65.4499L136.471 66.0659ZM126.899 61.5999C125.973 62.3699 125.51 63.4479 125.51 64.6799H134.773C134.618 63.4479 134.155 62.3699 133.383 61.5999C132.457 60.8299 131.531 60.3679 130.141 60.3679C128.752 60.3679 127.671 60.6759 126.899 61.5999Z" fill="#86C4C9"/>
<path d="M144.344 59.4436C145.116 58.9816 146.197 58.8276 147.432 58.8276V60.5216H146.969C145.579 60.5216 144.499 60.9836 143.727 61.7536C142.955 62.5236 142.492 63.7556 142.492 65.2956V71.9176H140.793V58.8276H142.492V61.4456C142.955 60.6756 143.572 59.9056 144.344 59.4436Z" fill="#86C4C9"/>
<path d="M161.943 60.2138C162.87 61.1378 163.333 62.5238 163.333 64.3718V71.9178H161.635V64.5258C161.635 63.1398 161.326 62.0618 160.554 61.4458C159.936 60.6758 158.856 60.3678 157.621 60.3678C156.231 60.3678 155.151 60.8298 154.224 61.5998C153.453 62.3698 152.989 63.6018 152.989 65.1418V72.0718H151.291V58.9818H152.989V61.4458C153.453 60.6758 154.07 60.0598 154.996 59.5978C155.923 59.1358 156.849 58.9818 157.93 58.9818C159.628 58.8278 161.017 59.2898 161.943 60.2138Z" fill="#86C4C9"/>
<path d="M177.536 60.0596C178.462 60.9836 178.925 62.2156 178.925 63.9096V72.0716H177.227V70.0696C176.764 70.6856 176.301 71.3016 175.529 71.6096C174.757 71.9176 173.831 72.2256 172.75 72.2256C171.36 72.2256 170.125 71.9176 169.199 71.1476C168.273 70.3776 167.964 69.4536 167.964 68.3756C167.964 67.2976 168.427 66.3736 169.199 65.7576C169.971 65.1416 171.36 64.6796 173.059 64.6796H177.227V63.9096C177.227 62.8316 176.918 61.9076 176.301 61.2916C175.683 60.6756 174.757 60.3676 173.522 60.3676C172.75 60.3676 171.824 60.5216 171.052 60.8296C170.28 61.1376 169.662 61.4456 169.045 61.9076L168.273 60.5216C168.89 59.9056 169.662 59.5976 170.743 59.2896C171.669 58.9816 172.595 58.8276 173.676 58.8276C175.22 58.8276 176.609 59.2896 177.536 60.0596ZM175.529 70.0696C176.301 69.6076 176.764 68.9916 177.072 68.0676V65.9116H172.904C170.589 65.9116 169.508 66.6816 169.508 68.2216C169.508 68.9916 169.817 69.6076 170.434 70.0696C171.052 70.5316 171.824 70.6856 172.904 70.6856C173.985 70.6856 174.757 70.5316 175.529 70.0696Z" fill="#86C4C9"/>
<path d="M191.43 71.1477C191.121 71.4557 190.658 71.6097 190.195 71.7637C189.732 71.9177 189.268 72.0717 188.651 72.0717C187.416 72.0717 186.49 71.7637 185.872 71.1477C185.255 70.5317 184.946 69.6077 184.946 68.3757V60.5217H182.63V58.9817H184.946V56.0557H186.644V58.9817H190.658V60.5217H186.644V68.3757C186.644 69.1457 186.798 69.7617 187.261 70.2237C187.725 70.6857 188.188 70.8397 188.96 70.8397C189.268 70.8397 189.732 70.8397 190.04 70.6857C190.349 70.5317 190.658 70.3777 190.967 70.2237L191.43 71.1477Z" fill="#86C4C9"/>
<path d="M195.289 55.7478C194.98 55.4398 194.98 55.1318 194.98 54.8238C194.98 54.5158 195.135 54.2078 195.289 53.8998C195.598 53.5918 195.907 53.5918 196.215 53.5918C196.524 53.5918 196.833 53.7458 197.142 53.8998C197.451 54.2078 197.451 54.3618 197.451 54.8238C197.451 55.1318 197.296 55.4398 197.142 55.7478C196.833 56.0558 196.524 56.0558 196.215 56.0558C195.907 56.0558 195.598 55.9018 195.289 55.7478ZM195.289 58.9818H196.987V72.0718H195.289V58.9818Z" fill="#86C4C9"/>
<path d="M204.706 71.3017C203.626 70.6857 202.854 69.9157 202.236 68.9917C201.619 67.9137 201.31 66.8357 201.31 65.6037C201.31 64.3717 201.619 63.1397 202.236 62.2157C202.854 61.1377 203.626 60.3677 204.706 59.9057C205.787 59.2897 206.868 59.1357 208.103 59.1357C209.338 59.1357 210.573 59.4437 211.499 59.9057C212.58 60.5217 213.351 61.2917 213.815 62.2157C214.432 63.2937 214.741 64.3717 214.741 65.6037C214.741 66.8357 214.432 68.0677 213.815 68.9917C213.197 70.0697 212.425 70.8397 211.499 71.3017C210.418 71.9177 209.338 72.2257 208.103 72.2257C206.868 72.0717 205.787 71.9177 204.706 71.3017ZM210.727 69.9157C211.499 69.4537 212.116 68.8377 212.425 68.0677C212.888 67.2977 213.043 66.3737 213.043 65.4497C213.043 64.5257 212.888 63.6017 212.425 62.8317C211.962 62.0617 211.499 61.4457 210.727 60.9837C209.955 60.5217 209.183 60.3677 208.257 60.3677C207.331 60.3677 206.559 60.5217 205.787 60.9837C205.015 61.4457 204.398 62.0617 204.089 62.8317C203.626 63.6017 203.471 64.5257 203.471 65.4497C203.471 66.3737 203.626 67.2977 204.089 68.0677C204.552 68.8377 205.169 69.4537 205.787 69.9157C206.559 70.3777 207.331 70.5317 208.257 70.5317C209.029 70.5317 209.955 70.3777 210.727 69.9157Z" fill="#86C4C9"/>
<path d="M229.87 60.2138C230.796 61.1378 231.259 62.5238 231.259 64.3718V71.9178H229.561V64.5258C229.561 63.1398 229.253 62.0618 228.481 61.4458C227.863 60.6758 226.782 60.3678 225.547 60.3678C224.158 60.3678 223.077 60.8298 222.151 61.5998C221.379 62.3698 220.916 63.6018 220.916 65.1418V72.0718H219.218V58.9818H220.916V61.4458C221.379 60.6758 221.997 60.0598 222.923 59.5978C223.849 59.1358 224.776 58.9818 225.856 58.9818C227.554 58.8278 228.789 59.2898 229.87 60.2138Z" fill="#86C4C9"/>
<path d="M245.308 60.0596C246.234 60.9836 246.697 62.2156 246.697 63.9096V72.0716H244.999V70.0696C244.536 70.6856 244.073 71.3016 243.301 71.6096C242.529 71.9176 241.603 72.2256 240.522 72.2256C239.133 72.2256 237.898 71.9176 236.971 71.1476C236.045 70.3776 235.736 69.4536 235.736 68.3756C235.736 67.2976 236.2 66.3736 236.971 65.7576C237.743 65.1416 239.133 64.6796 240.831 64.6796H244.999V63.9096C244.999 62.8316 244.69 61.9076 244.073 61.2916C243.455 60.6756 242.529 60.3676 241.294 60.3676C240.522 60.3676 239.596 60.5216 238.824 60.8296C238.052 61.1376 237.435 61.4456 236.817 61.9076L236.045 60.5216C236.663 59.9056 237.435 59.5976 238.515 59.2896C239.442 58.9816 240.368 58.8276 241.448 58.8276C243.147 58.8276 244.382 59.2896 245.308 60.0596ZM243.301 70.0696C244.073 69.6076 244.536 68.9916 244.845 68.0676V65.9116H240.831C238.515 65.9116 237.435 66.6816 237.435 68.2216C237.435 68.9916 237.743 69.6076 238.361 70.0696C238.978 70.5316 239.75 70.6856 240.831 70.6856C241.757 70.6856 242.684 70.5316 243.301 70.0696Z" fill="#86C4C9"/>
<path d="M252.255 53.5918H253.953V72.0718H252.255V53.5918Z" fill="#86C4C9"/>
<path d="M267.384 54.6699H269.237V70.5319H278.962V72.0719H267.384V54.6699Z" fill="#86C4C9"/>
<path d="M284.211 71.3017C283.131 70.6857 282.359 69.9157 281.741 68.9917C281.124 67.9137 280.815 66.8357 280.815 65.6037C280.815 64.3717 281.124 63.1397 281.741 62.2157C282.359 61.1377 283.131 60.3677 284.211 59.9057C285.292 59.4437 286.373 59.1357 287.608 59.1357C288.843 59.1357 290.078 59.4437 291.004 59.9057C292.085 60.5217 292.857 61.2917 293.32 62.2157C293.937 63.2937 294.246 64.3717 294.246 65.6037C294.246 66.8357 293.937 68.0677 293.32 68.9917C292.702 70.0697 291.93 70.8397 291.004 71.3017C289.923 71.9177 288.843 72.2257 287.608 72.2257C286.373 72.0717 285.292 71.9177 284.211 71.3017ZM290.232 69.9157C291.004 69.4537 291.622 68.8377 291.93 68.0677C292.393 67.2977 292.548 66.3737 292.548 65.4497C292.548 64.5257 292.393 63.6017 291.93 62.8317C291.467 62.0617 291.004 61.4457 290.232 60.9837C289.46 60.5217 288.688 60.3677 287.762 60.3677C286.836 60.3677 286.064 60.5217 285.292 60.9837C284.52 61.4457 283.903 62.0617 283.594 62.8317C283.131 63.6017 282.976 64.5257 282.976 65.4497C282.976 66.3737 283.131 67.2977 283.594 68.0677C284.057 68.8377 284.675 69.4537 285.292 69.9157C286.064 70.3777 286.836 70.5317 287.762 70.5317C288.534 70.5317 289.46 70.3777 290.232 69.9157Z" fill="#86C4C9"/>
<path d="M310.765 58.9816V70.5316C310.765 72.6876 310.147 74.3816 309.066 75.4596C307.986 76.5376 306.288 76.9996 304.126 76.9996C302.891 76.9996 301.811 76.8456 300.73 76.5376C299.649 76.2296 298.723 75.6136 298.105 74.9976L299.032 73.6116C299.649 74.2276 300.421 74.6896 301.347 74.9976C302.274 75.3056 303.2 75.4596 304.281 75.4596C305.979 75.4596 307.214 74.9976 307.986 74.2276C308.758 73.4576 309.221 72.2256 309.221 70.6856V68.9916C308.603 69.7616 307.986 70.3776 307.059 70.8396C306.133 71.3016 305.207 71.4556 304.126 71.4556C302.891 71.4556 301.811 71.1476 300.73 70.6856C299.649 70.2236 298.877 69.4536 298.414 68.3756C297.797 67.4516 297.488 66.3736 297.488 65.1416C297.488 63.9096 297.797 62.8316 298.414 61.9076C299.032 60.9836 299.804 60.2136 300.73 59.5976C301.656 59.1356 302.891 58.8276 304.126 58.8276C305.207 58.8276 306.288 58.9816 307.214 59.4436C308.14 59.9056 308.912 60.5216 309.375 61.4456V58.9816H310.765ZM306.751 69.2996C307.523 68.8376 308.14 68.3756 308.603 67.6056C309.066 66.8356 309.221 66.0656 309.221 65.1416C309.221 64.2176 309.066 63.4476 308.603 62.6776C308.14 61.9076 307.523 61.4456 306.905 60.9836C306.288 60.5216 305.361 60.3676 304.281 60.3676C303.354 60.3676 302.428 60.5216 301.656 60.9836C300.884 61.4456 300.267 61.9076 299.958 62.6776C299.495 63.4476 299.34 64.2176 299.34 65.1416C299.34 66.0656 299.495 66.8356 299.958 67.6056C300.421 68.3756 301.039 68.8376 301.656 69.2996C302.428 69.7616 303.2 69.9156 304.281 69.9156C305.052 69.9156 305.979 69.7616 306.751 69.2996Z" fill="#86C4C9"/>
<path d="M316.477 55.7478C316.168 55.4398 316.168 55.1318 316.168 54.8238C316.168 54.5158 316.322 54.2078 316.477 53.8998C316.785 53.5918 317.094 53.5918 317.403 53.5918C317.712 53.5918 318.02 53.7458 318.329 53.8998C318.638 54.2078 318.638 54.3618 318.638 54.8238C318.638 55.1318 318.484 55.4398 318.329 55.7478C318.02 56.0558 317.712 56.0558 317.403 56.0558C317.094 56.0558 316.785 55.9018 316.477 55.7478ZM316.477 58.9818H318.175V72.0718H316.477V58.9818Z" fill="#86C4C9"/>
<path d="M324.504 71.6096C323.578 71.3016 322.806 70.9936 322.189 70.3776L322.96 68.9916C323.578 69.4536 324.196 69.7616 324.967 70.0696C325.739 70.3776 326.666 70.5316 327.592 70.5316C328.827 70.5316 329.599 70.3776 330.216 69.9156C330.834 69.6076 331.143 68.9916 331.143 68.3756C331.143 67.9136 330.988 67.4516 330.679 67.2976C330.371 66.9896 329.908 66.8356 329.444 66.6816C328.981 66.5276 328.364 66.3736 327.592 66.2196C326.511 66.0656 325.739 65.7576 324.967 65.6036C324.35 65.4496 323.732 64.9876 323.269 64.5256C322.806 64.0636 322.652 63.2936 322.652 62.5236C322.652 61.4456 323.115 60.5216 324.041 59.9056C324.967 59.1356 326.202 58.8276 327.901 58.8276C328.673 58.8276 329.599 58.9816 330.371 59.1356C331.143 59.2896 331.914 59.5976 332.532 60.0596L331.76 61.4456C330.679 60.6756 329.444 60.3676 327.901 60.3676C326.82 60.3676 325.894 60.5216 325.276 60.9836C324.659 61.4456 324.35 61.9076 324.35 62.5236C324.35 62.9856 324.504 63.4476 324.813 63.7556C325.122 64.0636 325.585 64.2176 326.048 64.3716C326.511 64.5256 327.129 64.6796 328.055 64.8336C329.136 64.9876 329.908 65.2956 330.525 65.4496C331.143 65.6036 331.76 65.9116 332.223 66.5276C332.686 66.9896 332.841 67.6056 332.841 68.5296C332.841 69.6076 332.378 70.5316 331.451 71.3016C330.525 71.9176 329.136 72.3796 327.437 72.3796C326.511 72.0716 325.431 71.9176 324.504 71.6096Z" fill="#86C4C9"/>
<path d="M343.802 71.1477C343.493 71.4557 343.03 71.6097 342.567 71.7637C342.103 71.9177 341.64 72.0717 341.023 72.0717C339.788 72.0717 338.861 71.7637 338.244 71.1477C337.626 70.5317 337.318 69.6077 337.318 68.3757V60.5217H335.002V58.9817H337.318V56.0557H339.016V58.9817H343.03V60.5217H339.016V68.3757C339.016 69.1457 339.17 69.7617 339.633 70.2237C340.096 70.6857 340.56 70.8397 341.331 70.8397C341.64 70.8397 342.103 70.8397 342.412 70.6857C342.721 70.5317 343.03 70.3777 343.338 70.2237L343.802 71.1477Z" fill="#86C4C9"/>
<path d="M347.815 55.7478C347.507 55.4398 347.507 55.1318 347.507 54.8238C347.507 54.5158 347.661 54.2078 347.815 53.8998C348.124 53.5918 348.433 53.5918 348.742 53.5918C349.05 53.5918 349.359 53.7458 349.668 53.8998C349.977 54.2078 349.977 54.3618 349.977 54.8238C349.977 55.1318 349.822 55.4398 349.668 55.7478C349.359 56.0558 349.05 56.0558 348.742 56.0558C348.433 56.0558 348.124 55.9018 347.815 55.7478ZM347.815 58.9818H349.514V72.0718H347.815V58.9818Z" fill="#86C4C9"/>
<path d="M357.233 71.3017C356.152 70.6857 355.38 69.9157 354.762 68.9917C354.145 67.9137 353.836 66.8357 353.836 65.6037C353.836 64.3717 354.145 63.1397 354.762 62.2157C355.38 61.1377 356.152 60.3677 357.233 59.9057C358.313 59.2897 359.394 59.1357 360.783 59.1357C361.864 59.1357 362.945 59.2897 363.871 59.7517C364.797 60.2137 365.415 60.8297 366.032 61.7537L364.643 62.6777C364.18 62.0617 363.716 61.5997 362.945 61.2917C362.327 60.9837 361.555 60.8297 360.783 60.8297C359.857 60.8297 358.931 60.9837 358.159 61.4457C357.387 61.9077 356.769 62.5237 356.461 63.2937C356.152 64.0637 355.843 64.9877 355.843 65.9117C355.843 66.9897 355.997 67.7597 356.461 68.5297C356.924 69.2997 357.541 69.9157 358.159 70.3777C358.931 70.8397 359.703 70.9937 360.783 70.9937C361.555 70.9937 362.327 70.8397 362.945 70.5317C363.562 70.2237 364.18 69.7617 364.643 69.1457L366.032 70.0697C365.569 70.8397 364.797 71.6097 363.871 72.0717C362.945 72.5337 362.018 72.6877 360.783 72.6877C359.394 72.0717 358.313 71.9177 357.233 71.3017Z" fill="#86C4C9"/>
<path d="M370.509 71.6096C369.583 71.3016 368.811 70.9936 368.193 70.3776L368.965 68.9916C369.583 69.4536 370.2 69.7616 370.972 70.0696C371.744 70.3776 372.67 70.5316 373.597 70.5316C374.832 70.5316 375.604 70.3776 376.221 69.9156C376.839 69.6076 377.147 68.9916 377.147 68.3756C377.147 67.9136 376.993 67.4516 376.684 67.2976C376.376 66.9896 375.912 66.8356 375.449 66.6816C374.986 66.5276 374.369 66.3736 373.597 66.2196C372.516 66.0656 371.744 65.7576 370.972 65.6036C370.355 65.4496 369.737 64.9876 369.274 64.5256C368.811 64.0636 368.657 63.2936 368.657 62.5236C368.657 61.4456 369.12 60.5216 370.046 59.9056C370.972 59.1356 372.207 58.8276 373.905 58.8276C374.677 58.8276 375.604 58.9816 376.376 59.1356C377.147 59.2896 377.919 59.5976 378.537 60.0596L377.765 61.4456C376.684 60.6756 375.449 60.3676 373.905 60.3676C372.825 60.3676 371.899 60.5216 371.281 60.9836C370.664 61.4456 370.355 61.9076 370.355 62.5236C370.355 62.9856 370.509 63.4476 370.818 63.7556C371.127 64.0636 371.59 64.2176 372.053 64.3716C372.516 64.5256 373.134 64.6796 374.06 64.8336C375.141 64.9876 375.912 65.2956 376.53 65.4496C377.147 65.6036 377.765 65.9116 378.228 66.5276C378.691 66.9896 378.846 67.6056 378.846 68.5296C378.846 69.6076 378.382 70.5316 377.456 71.3016C376.53 71.9176 375.141 72.3796 373.442 72.3796C372.516 72.0716 371.59 71.9176 370.509 71.6096Z" fill="#86C4C9"/>
</g>
<defs>
<clipPath id="clip0_42_519">
<rect width="379" height="77" fill="white"/>
</clipPath>
</defs>
</svg>
